<svg width="704" height="704" viewBox="0 0 704 704" fill="none" xmlns="http://www.w3.org/2000/svg">
<path d="M267.5 10.2754L275.4 42.2754C244.264 49.9706 214.463 62.3088 187 78.8754L170.1 50.5754C200.329 32.2688 233.173 18.6793 267.5 10.2754ZM436.5 10.2754L428.6 42.2754C459.736 49.9706 489.537 62.3088 517 78.8754L534.1 50.5754C503.791 32.2849 470.884 18.6971 436.5 10.2754ZM50.6 169.975C32.3105 200.249 18.7224 233.123 10.3 267.475L42.3 275.375C49.9952 244.239 62.3334 214.439 78.9 186.975L50.6 169.975ZM33 351.975C32.9976 335.974 34.201 319.996 36.6 304.175L3.99997 299.175C-1.29996 334.142 -1.29996 369.708 3.99997 404.675L36.6 399.775C34.2047 383.955 33.0013 367.976 33 351.975ZM533.9 653.275L517 625.075C489.58 641.657 459.81 653.997 428.7 661.675L436.6 693.675C470.884 685.191 503.689 671.57 533.9 653.275ZM671 351.975C670.999 367.976 669.795 383.955 667.4 399.775L700 404.675C705.3 369.708 705.3 334.142 700 299.175L667.4 304.175C669.799 319.996 671.002 335.974 671 351.975ZM693.7 436.375L661.7 428.475C654.023 459.649 641.684 489.485 625.1 516.975L653.4 533.975C671.707 503.675 685.296 470.765 693.7 436.375ZM399.8 667.375C368.114 672.176 335.886 672.176 304.2 667.375L299.3 699.975C334.233 705.276 369.767 705.276 404.7 699.975L399.8 667.375ZM608.8 541.175C589.793 566.95 567.003 589.706 541.2 608.675L560.8 635.275C589.221 614.353 614.364 589.311 635.4 560.975L608.8 541.175ZM541.2 95.1754C567.005 114.18 589.795 136.97 608.8 162.775L635.4 142.975C614.438 114.614 589.362 89.5376 561 68.5754L541.2 95.1754ZM95.2 162.775C114.205 136.97 136.995 114.18 162.8 95.1754L143 68.5754C114.638 89.5376 89.5622 114.614 68.6 142.975L95.2 162.775ZM653.4 169.975L625.1 186.975C641.682 214.395 654.021 244.165 661.7 275.275L693.7 267.375C685.277 233.055 671.688 200.214 653.4 169.975ZM304.2 36.5754C335.886 31.7748 368.114 31.7748 399.8 36.5754L404.7 3.97537C369.767 -1.32512 334.233 -1.32512 299.3 3.97537L304.2 36.5754ZM112.1 644.075L44 659.875L59.9 591.775L27.8 584.275L11.9 652.375C10.9051 656.598 10.7525 660.974 11.4507 665.256C12.1489 669.537 13.6843 673.638 15.9691 677.326C18.2539 681.013 21.2433 684.213 24.7662 686.744C28.2891 689.275 32.2763 691.087 36.5 692.075C41.4395 693.175 46.5605 693.175 51.5 692.075L119.6 676.375L112.1 644.075ZM34.6 554.875L66.8 562.275L77.8 515.075C61.7363 488.129 49.7719 458.943 42.3 428.475L10.3 436.375C17.4978 465.539 28.3856 493.666 42.7 520.075L34.6 554.875ZM188.6 626.275L141.4 637.275L148.9 669.475L183.6 661.375C209.989 675.733 238.122 686.623 267.3 693.775L275.2 661.775C244.827 654.206 215.744 642.175 188.9 626.075L188.6 626.275ZM352 65.9754C194 66.0754 66.1 194.175 66.1 352.075C66.187 405.857 81.3996 458.529 110 504.075L82.5 621.475L199.8 593.975C333.5 678.075 510.1 637.975 594.2 504.375C678.3 370.775 638.3 194.175 504.7 109.975C458.963 81.2134 406.029 65.9607 352 65.9754Z" fill="#3A76F0"/>
<path d="M354.926 214.024V146.512H383.731V214.024H354.926ZM294.614 214.024V146.512H323.42V214.024H294.614ZM354.926 557.439V489.926H383.731V557.439H354.926ZM294.614 557.439V489.926H323.42V557.439H294.614ZM253.206 513.331V191.97H327.02C352.225 191.97 373.229 194.521 390.032 199.622C407.135 204.723 419.888 213.124 428.289 224.826C436.991 236.529 441.342 252.132 441.342 271.635C441.342 284.238 439.241 295.49 435.041 305.392C431.14 314.993 425.139 323.095 417.037 329.696C409.236 335.997 399.484 340.348 387.782 342.749V344.999C399.784 347.099 410.436 351 419.738 356.701C429.34 362.402 436.841 370.504 442.242 381.006C447.943 391.508 450.794 405.16 450.794 421.964C450.794 441.467 446.593 458.12 438.191 471.923C430.09 485.426 418.388 495.777 403.085 502.979C387.782 509.88 369.478 513.331 348.174 513.331H253.206ZM335.122 328.796C359.726 328.796 376.53 324.445 385.531 315.744C394.833 306.742 399.484 293.539 399.484 276.136C399.484 258.433 393.783 245.83 382.381 238.329C371.279 230.528 353.425 226.627 328.821 226.627H293.714V328.796H335.122ZM293.714 362.552V479.124H340.523C365.428 479.124 382.831 473.573 392.733 462.471C402.635 451.369 407.585 436.816 407.585 418.813C407.585 407.411 405.335 397.509 400.834 389.107C396.633 380.706 389.432 374.255 379.23 369.754C369.028 364.953 355.076 362.552 337.372 362.552H293.714Z" fill="white"/>
</svg>
