<svg width="26" height="26" viewBox="0 0 26 26" fill="none" xmlns="http://www.w3.org/2000/svg">
<g clip-path="url(#clip0_6_443)">
<path d="M13 25C19.6274 25 25 19.6274 25 13C25 6.37258 19.6274 1 13 1C6.37258 1 1 6.37258 1 13C1 19.6274 6.37258 25 13 25Z" stroke="white" stroke-width="0.5"/>
<path d="M13 19.5C16.5899 19.5 19.5 16.5899 19.5 13C19.5 9.41015 16.5899 6.5 13 6.5C9.41015 6.5 6.5 9.41015 6.5 13C6.5 16.5899 9.41015 19.5 13 19.5Z" stroke="white" stroke-width="0.5"/>
<path d="M22.0955 15.1123C22.3716 15.1123 22.5955 14.8884 22.5955 14.6123C22.5955 14.3361 22.3716 14.1123 22.0955 14.1123C21.8194 14.1123 21.5955 14.3361 21.5955 14.6123C21.5955 14.8884 21.8194 15.1123 22.0955 15.1123Z" fill="white"/>
<path d="M3.87941 15.1123C4.15555 15.1123 4.37941 14.8884 4.37941 14.6123C4.37941 14.3362 4.15555 14.1123 3.87941 14.1123C3.60327 14.1123 3.37941 14.3362 3.37941 14.6123C3.37941 14.8884 3.60327 15.1123 3.87941 15.1123Z" fill="white"/>
<path d="M16.2369 11.9739C16.3645 11.0265 15.6456 10.5318 14.6601 10.1974L14.9662 8.91556L14.1871 8.72746L13.8903 9.98146C13.6839 9.93269 13.4752 9.88393 13.2689 9.84213L13.5657 8.58812L12.7773 8.40002L12.4712 9.68189C12.3042 9.64241 12.135 9.61223 11.968 9.57275L10.8944 9.31498L10.6973 10.144C10.6973 10.144 11.2793 10.2717 11.2585 10.2833C11.5738 10.3623 11.6341 10.569 11.6225 10.7269L11.277 12.1876C11.2979 12.1969 11.3257 12.1969 11.3558 12.2178C11.3257 12.2085 11.3071 12.2085 11.277 12.1992L10.804 14.2427C10.7645 14.3403 10.6648 14.4796 10.4492 14.4308C10.4585 14.4401 9.87644 14.2915 9.87644 14.2915L9.50775 15.1902L10.5234 15.4271C10.7112 15.4758 10.899 15.5153 11.0753 15.5664L10.7692 16.8599L11.5483 17.048L11.8544 15.7661C12.0724 15.8242 12.2787 15.8753 12.4758 15.924L12.1697 17.1966L12.9489 17.3847L13.2549 16.0912C14.5859 16.3281 15.5807 16.219 15.9842 15.0044C16.3088 14.0361 15.954 13.4834 15.2445 13.1188C15.7639 13.0004 16.1395 12.6636 16.2369 11.9739ZM14.4839 14.4889C14.2567 15.4573 12.6219 14.9533 12.0979 14.8256L12.5013 13.1072C13.0347 13.2372 14.7204 13.4741 14.4839 14.4889ZM14.6996 11.9739C14.4932 12.8517 13.1321 12.4291 12.6892 12.3199L13.0648 10.7617C13.4984 10.8685 14.9175 11.0566 14.6996 11.9739Z" fill="white"/>
<path d="M5.79151 18.3593C6.14102 18.0965 6.18643 17.6906 5.95937 17.3144C5.70892 16.8994 5.22893 16.7483 4.71434 17.0589C4.20203 17.368 4.10508 17.8569 4.36012 18.2795C4.61791 18.7067 5.05092 18.7678 5.34381 18.6294L5.11674 18.248C4.95095 18.3118 4.79413 18.2529 4.69459 18.088C4.56065 17.8661 4.63663 17.6294 4.94599 17.4427C5.24319 17.2634 5.4983 17.2961 5.63545 17.5233C5.73866 17.6944 5.70651 17.8662 5.56216 17.9792L5.79151 18.3593Z" fill="white"/>
<path d="M7.32735 20.3033C7.74145 19.8677 7.69544 19.3646 7.34154 19.0282C6.98636 18.6905 6.48352 18.6718 6.06942 19.1075C5.65715 19.5411 5.6994 20.0443 6.05459 20.382C6.40848 20.7184 6.91325 20.7389 7.32735 20.3033ZM7.00177 19.9938C6.75649 20.2518 6.51051 20.2838 6.32005 20.1027C6.13024 19.9223 6.14908 19.6744 6.39436 19.4163C6.63964 19.1583 6.88626 19.127 7.07608 19.3074C7.26654 19.4885 7.24705 19.7357 7.00177 19.9938Z" fill="white"/>
<path d="M8.40064 19.987L7.5803 21.6096L7.96218 21.8026L8.46888 20.8004L8.48235 20.8072L8.37066 21.9962L8.61468 22.1196L9.50318 21.3303L9.51665 21.3371L9.01274 22.3338L9.39463 22.5269L10.215 20.9043L9.7293 20.6587L8.8094 21.455L8.79039 21.4454L8.88631 20.2325L8.40064 19.987Z" fill="white"/>
<path d="M10.7575 21.0826L10.4759 22.8788L10.8987 22.9451L11.0726 21.8356L11.0875 21.8379L11.3469 23.0037L11.617 23.046L12.2198 22.0217L12.2347 22.0241L12.0617 23.1274L12.4844 23.1937L12.766 21.3974L12.2284 21.3132L11.598 22.3538L11.5769 22.3505L11.2952 21.1669L10.7575 21.0826Z" fill="white"/>
<path d="M14.4549 21.2335L14.5971 22.3592C14.6208 22.5468 14.5049 22.6983 14.3102 22.7229C14.1147 22.7476 13.9655 22.6296 13.9418 22.442L13.7996 21.3163L13.3636 21.3714L13.5106 22.5349C13.5616 22.9383 13.8992 23.1596 14.358 23.1017C14.8134 23.0441 15.088 22.7455 15.037 22.3421L14.89 21.1786L14.4549 21.2335Z" fill="white"/>
<path d="M16.916 20.4485L16.5081 20.6108L16.8957 21.5851L16.8817 21.5906L15.8286 20.8811L15.4769 21.0211L16.1496 22.712L16.5583 22.5494L16.1701 21.5735L16.1808 21.5692L17.242 22.2774L17.5887 22.1394L16.916 20.4485Z" fill="white"/>
<path d="M17.8288 19.8561L17.4615 20.0974L18.46 21.6169L18.8272 21.3756L17.8288 19.8561Z" fill="white"/>
<path d="M18.5757 19.7771L18.9719 19.3924L19.9898 20.4409L20.3006 20.1392L19.2828 19.0907L19.6784 18.7067L19.4298 18.4506L18.3271 19.521L18.5757 19.7771Z" fill="white"/>
<path d="M19.7441 18.1067L21.1192 18.1712L21.6353 18.4869L21.8624 18.1157L21.3463 17.7999L20.6628 16.605L20.4075 17.0223L20.8543 17.7447L20.846 17.7583L19.9994 17.6894L19.7441 18.1067Z" fill="white"/>
<path d="M4.73356 12.2444L4.87327 11.4406C4.94213 11.0444 4.76999 10.7802 4.48047 10.7298C4.22157 10.6848 4.0262 10.8446 3.97887 11.0599L3.96138 11.0568C3.95448 10.8529 3.83593 10.6899 3.63125 10.6543C3.36098 10.6074 3.14199 10.7837 3.07206 11.1861L2.94223 11.9331L4.73356 12.2444ZM4.45981 11.7508L4.03298 11.6766L4.08086 11.4011C4.1096 11.2358 4.2147 11.1495 4.35202 11.1734C4.47885 11.1954 4.53887 11.296 4.50633 11.4831L4.45981 11.7508ZM3.75396 11.6281L3.36123 11.5599L3.4041 11.3132C3.42918 11.1689 3.51949 11.09 3.63845 11.1106C3.7644 11.1325 3.82024 11.2468 3.79561 11.3884L3.75396 11.6281Z" fill="white"/>
<path d="M3.63692 9.21407L3.48202 9.62532L5.1835 10.2662L5.3384 9.85497L3.63692 9.21407Z" fill="white"/>
<path d="M4.30794 8.53401L4.59679 8.06338L5.84221 8.82778L6.06884 8.45854L4.82341 7.69415L5.1118 7.22427L4.80763 7.03759L4.00377 8.34733L4.30794 8.53401Z" fill="white"/>
<path d="M7.00653 5.63955C6.66981 5.36056 6.26449 5.4106 5.95121 5.71878C5.60565 6.05871 5.57014 6.56064 5.99164 6.98911C6.41126 7.41567 6.90925 7.39653 7.26113 7.05037C7.61681 6.70048 7.57581 6.26509 7.37323 6.01232L7.05492 6.32171C7.15542 6.46818 7.13459 6.63437 6.99726 6.76947C6.81245 6.95127 6.56464 6.93229 6.31124 6.6747C6.06781 6.42724 6.0404 6.17151 6.22964 5.98536C6.37204 5.84528 6.54663 5.83666 6.69008 5.95084L7.00653 5.63955Z" fill="white"/>
<path d="M9.31659 4.49904C9.02209 3.97614 8.52838 3.87269 8.10358 4.11195C7.67723 4.35208 7.5121 4.8266 7.80661 5.34949C8.0998 5.87007 8.5925 5.97715 9.01885 5.73702C9.44365 5.49776 9.6111 5.02194 9.31659 4.49904ZM8.92577 4.71916C9.10021 5.02888 9.05867 5.27305 8.83005 5.40181C8.6022 5.53014 8.37109 5.43953 8.19665 5.12981C8.02221 4.82009 8.06452 4.57549 8.29237 4.44716C8.521 4.31839 8.75133 4.40944 8.92577 4.71916Z" fill="white"/>
<path d="M10.2299 3.24244L9.81073 3.37429L10.3563 5.1087L10.7755 4.97685L10.2299 3.24244Z" fill="white"/>
<path d="M12.7267 2.82935L12.2926 2.87759L12.4078 3.9147L12.3928 3.91636L11.5692 2.95796L11.1948 2.99956L11.3948 4.79956L11.8299 4.75122L11.7144 3.71235L11.7259 3.71108L12.5576 4.67036L12.9267 4.62935L12.7267 2.82935Z" fill="white"/>
<path d="M15.1492 4.91841C15.684 5.06272 16.1048 4.82223 16.2528 4.27367C16.4006 3.72596 16.1577 3.30732 15.622 3.16277L14.974 2.98793L14.5003 4.74334L15.1492 4.91841ZM15.0222 4.49611L15.3007 3.46412L15.503 3.5187C15.8047 3.60011 15.9297 3.78096 15.8277 4.15895C15.7252 4.53866 15.5262 4.63209 15.2305 4.55231L15.0222 4.49611Z" fill="white"/>
<path d="M16.5445 5.40498L17.6475 6.01351L17.8188 5.70301L17.0981 5.30543L17.2776 4.98026L17.9418 5.34674L18.1135 5.03547L17.4493 4.66899L17.6283 4.3446L18.3489 4.74218L18.5202 4.43169L17.4172 3.82317L16.5445 5.40498Z" fill="white"/>
<path d="M19.7477 6.07756L20.0593 6.36033C20.2852 6.10614 20.2392 5.7539 19.9262 5.46993C19.6185 5.19073 19.2448 5.15734 19.0195 5.40963C18.8333 5.6135 18.8723 5.85861 19.0567 6.12305L19.1675 6.28359C19.2845 6.45201 19.3145 6.55237 19.2472 6.62917C19.1713 6.71016 19.0425 6.69756 18.9116 6.57884C18.7676 6.44819 18.7338 6.29523 18.8441 6.15914L18.5325 5.87637C18.2507 6.19487 18.333 6.54409 18.6716 6.85133C19.0069 7.15558 19.3432 7.18387 19.5766 6.92931C19.7704 6.71312 19.7444 6.44979 19.5319 6.15026L19.44 6.01896C19.3416 5.8817 19.301 5.77054 19.3764 5.69272C19.4439 5.61968 19.5553 5.62369 19.6816 5.73824C19.8085 5.85337 19.8263 5.97381 19.7477 6.07756Z" fill="white"/>
<path d="M21.3108 7.05573L21.0471 6.70417L19.5926 7.79507L19.8562 8.14664L21.3108 7.05573Z" fill="white"/>
<path d="M21.8616 9.20865L22.0538 9.60977C22.3612 9.41323 22.453 9.01094 22.2712 8.63144C22.0613 8.1935 21.5874 7.99531 21.051 8.25232C20.5321 8.50089 20.3638 8.97337 20.5889 9.44334C20.7911 9.86527 21.1975 10.0417 21.6379 9.83069L21.8548 9.72674L21.5161 9.01978L21.2271 9.15826L21.3828 9.48331C21.208 9.56217 21.0408 9.49463 20.9379 9.28006C20.8202 9.03426 20.934 8.80547 21.2495 8.65434C21.5625 8.50435 21.8136 8.56814 21.9275 8.80593C22.0035 8.96446 21.9776 9.10975 21.8616 9.20865Z" fill="white"/>
<path d="M23.2005 11.8944L23.1203 11.4632L22.0904 11.6546L22.0876 11.6398L22.9868 10.7448L22.9177 10.373L21.1301 10.7053L21.2104 11.1373L22.2421 10.9456L22.2442 10.9569L21.3448 11.86L21.4129 12.2266L23.2005 11.8944Z" fill="white"/>
</g>
<defs>
<clipPath id="clip0_6_443">
<rect width="25" height="25" fill="white" transform="translate(0.5 0.5)"/>
</clipPath>
</defs>
</svg>
